<?xml version="1.0" encoding="UTF-8"?>
<svg version="1.1" xmlns="http://www.w3.org/2000/svg" width="1024" height="1024">
<path d="M0 0 C337.92 0 675.84 0 1024 0 C1024 337.92 1024 675.84 1024 1024 C686.08 1024 348.16 1024 0 1024 C0 686.08 0 348.16 0 0 Z " fill="#FCFCFB" transform="translate(0,0)"/>
<path d="M0 0 C7.22361227 6.03080667 14.35798406 13.18248773 18 22 C18 23.32 18 24.64 18 26 C15.84849181 27.63478361 13.82158709 28.96656723 11.5 30.3125 C10.20041513 31.1114944 8.90351754 31.9148766 7.609375 32.72265625 C6.98224609 33.11340332 6.35511719 33.50415039 5.70898438 33.90673828 C-4.8310241 40.64933227 -15.00370661 53.09064807 -19 65 C-19.87439997 69.11442466 -19.7719254 72.24944115 -18.06640625 76.1171875 C-15.82671998 79.42687225 -14.05422181 80.77948127 -10.10546875 81.60546875 C-3.7577893 81.94535116 -3.7577893 81.94535116 1.59765625 78.8515625 C4.09272382 75.88993757 6.24676224 72.85961407 8.375 69.625 C15.83635353 58.6190018 24.60551024 50.62822136 37.8828125 47.46875 C51.91416797 45.35877173 65.98527296 47.05361486 77.8359375 55.2734375 C85.59603789 61.40696663 91.01710906 70.32925256 93 80 C94.52428211 93.98124087 93.10765346 106.27288374 84.6875 117.9375 C76.25781449 127.87833864 65.91844941 131.85979626 53.49609375 134.51806641 C49.47182807 135.42391538 48.01849857 135.98150143 45 139 C44.67 152.86 44.34 166.72 44 181 C-9.13 181 -62.26 181 -117 181 C-117.495 160.21 -117.495 160.21 -118 139 C-122.2049479 134.7950521 -122.79537411 134.53648094 -128.25 133.75 C-140.87488426 131.30137803 -153.14132982 125.48402239 -161 115 C-167.52371315 104.61696149 -169.18319456 94.1368926 -168 82 C-165.0210107 70.40367686 -158.96884668 59.86211706 -149 53 C-137.42787464 46.72634777 -123.93755792 44.6446674 -111 47.859375 C-107.21727598 49.0245891 -103.54383467 50.22808267 -100 52 C-97.12693772 52.50095023 -97.12693772 52.50095023 -94 52 C-90.59867564 49.34786603 -89.15523943 47.8820422 -88.3984375 43.58203125 C-88.39070313 42.33808594 -88.38296875 41.09414063 -88.375 39.8125 C-87.9038518 24.93071545 -81.89229302 12.25270998 -71 2 C-64.86906294 -3.07561183 -58.5369884 -6.50023218 -51 -9 C-49.80375 -9.4125 -48.6075 -9.825 -47.375 -10.25 C-31.25204946 -13.77891889 -13.32776021 -9.60929554 0 0 Z " fill="#FCFCFB" transform="translate(353,269)"/>
<path d="M0 0 C2.45541703 1.90435397 4.76669798 3.88726965 7.05859375 5.984375 C7.74050781 6.57476562 8.42242187 7.16515625 9.125 7.7734375 C19.48540863 17.30258047 25.5260281 30.28260049 31.05859375 42.984375 C32.79882812 43.04044922 32.79882812 43.04044922 34.57421875 43.09765625 C53.72743936 43.84190978 69.19865121 48.31058703 84.05859375 60.984375 C85.26515625 61.87962891 85.26515625 61.87962891 86.49609375 62.79296875 C89.47889525 65.34380966 91.73922088 68.1783516 93.99609375 71.359375 C94.42921875 71.96861816 94.86234375 72.57786133 95.30859375 73.20556641 C106.88148435 90.04239493 109.81042092 109.70079771 106.37109375 129.6875 C102.46991925 148.09016267 91.65798242 162.6439552 76.05859375 172.984375 C69.65220768 176.7359782 63.46627899 179.88202547 56.05859375 180.984375 C56.0674762 181.82518112 56.07635864 182.66598724 56.08551025 183.53227234 C56.16571493 191.46265996 56.22658793 199.39291103 56.26584244 207.32361126 C56.28670227 211.40073154 56.31498994 215.47751622 56.36035156 219.55444336 C56.40386757 223.49019982 56.42774293 227.42563382 56.43810272 231.36161232 C56.44548386 232.86192716 56.45989778 234.36222469 56.48151398 235.86240196 C56.51062637 237.96684031 56.51454677 240.06995267 56.51269531 242.17456055 C56.52157776 243.37147018 56.53046021 244.56837982 56.53961182 245.80155945 C55.96263007 249.61935052 54.73551329 251.25604217 52.05859375 253.984375 C48.94293071 255.54220652 45.63460622 255.13236123 42.21426392 255.13154602 C40.984743 255.13706105 40.984743 255.13706105 39.73038328 255.1426875 C36.9681985 255.1537505 34.2060513 255.15757257 31.44384766 255.16137695 C29.46977111 255.16763953 27.49569576 255.17428614 25.5216217 255.18128967 C20.14768011 255.19871628 14.77374742 255.20925553 9.39978456 255.2174952 C6.04519145 255.22264086 2.69060113 255.22871672 -0.66399002 255.23500633 C-11.15155955 255.25406133 -21.63912201 255.26829293 -32.12670553 255.2766183 C-44.24845649 255.28639889 -56.37002525 255.31273861 -68.49171197 255.35311919 C-77.85139925 255.38323327 -87.21103415 255.39808262 -96.57076895 255.40139931 C-102.16567345 255.40375481 -107.76038335 255.41278016 -113.35523605 255.43786049 C-118.61654341 255.4610645 -123.87752698 255.46540544 -129.13887215 255.45509911 C-131.07227337 255.45460179 -133.00569012 255.46097944 -134.93904305 255.47465515 C-137.57412437 255.49225507 -140.20802861 255.48532726 -142.84310913 255.47212219 C-143.99670663 255.48857606 -143.99670663 255.48857606 -145.17360914 255.50536233 C-148.68694831 255.46271433 -150.57427321 255.27065497 -153.38504982 253.0788908 C-156.13034806 249.38431902 -156.06340033 247.10516874 -156.05493164 242.51513672 C-156.05507767 241.85160187 -156.05522369 241.18806702 -156.05537415 240.50442505 C-156.05467656 238.30760447 -156.04689139 236.1108683 -156.0390625 233.9140625 C-156.03719777 232.39234463 -156.03577413 230.87062616 -156.03477478 229.34890747 C-156.03095392 225.34086453 -156.02112729 221.33285774 -156.0100708 217.3248291 C-155.99984743 213.23608896 -155.99527517 209.14734299 -155.99023438 205.05859375 C-155.97950465 197.03383756 -155.96243338 189.00911078 -155.94140625 180.984375 C-156.5549295 180.78276764 -157.16845276 180.58116028 -157.80056763 180.3734436 C-158.60775238 180.10663788 -159.41493713 179.83983215 -160.24658203 179.56494141 C-161.44530441 179.16971786 -161.44530441 179.16971786 -162.66824341 178.76651001 C-180.20447341 172.73275863 -193.314457 159.93108431 -201.37890625 143.484375 C-208.27057563 127.02636568 -210.78206944 104.903453 -203.94140625 87.984375 C-195.80744103 68.60834403 -182.35262203 55.1146118 -162.94140625 46.984375 C-152.09785298 42.71082876 -136.252863 41.74418159 -124.94140625 44.984375 C-124.75578125 44.16259766 -124.75578125 44.16259766 -124.56640625 43.32421875 C-119.14352522 22.48001978 -104.84065563 5.71863829 -86.52734375 -5.15625 C-59.3427704 -19.87294081 -25.32419771 -17.35363349 0 0 Z M-80.94140625 23.984375 C-81.85599609 24.65919922 -81.85599609 24.65919922 -82.7890625 25.34765625 C-91.928757 32.47862668 -99.30201719 44.43578981 -100.94140625 55.984375 C-101.11340659 59.82571594 -101.25362917 63.65100886 -101.3046875 67.49609375 C-102.0938983 71.81980689 -103.54148471 73.28875912 -106.94140625 75.984375 C-112.06515699 77.08232159 -116.62755919 74.80449171 -121.35546875 72.95703125 C-130.84202773 69.38882402 -144.1779498 69.4136592 -153.71484375 72.953125 C-166.45529995 78.85396787 -173.97686648 86.80332948 -178.94140625 99.984375 C-179.3075 100.93828125 -179.67359375 101.8921875 -180.05078125 102.875 C-182.9966648 113.15975133 -181.16168696 124.33426273 -176.94140625 133.984375 C-175.2503589 137.01695232 -173.33063972 139.47192994 -170.94140625 141.984375 C-170.30460937 142.66113281 -169.6678125 143.33789062 -169.01171875 144.03515625 C-160.35220128 152.45677488 -149.76406677 156.21983001 -138.14624023 158.60449219 C-133.14431274 159.68001527 -133.14431274 159.68001527 -130.94140625 162.984375 C-130.61140625 176.844375 -130.28140625 190.704375 -129.94140625 204.984375 C-76.81140625 204.984375 -23.68140625 204.984375 31.05859375 204.984375 C31.38859375 191.124375 31.71859375 177.264375 32.05859375 162.984375 C36.66512416 159.29915067 39.18227241 158.19466973 44.62109375 157.109375 C56.95471409 154.28018776 66.72245579 149.74104354 74.05859375 138.984375 C80.30492631 126.68643968 81.91619471 114.21892807 79.4453125 100.60546875 C75.78586608 89.53040403 68.2778526 80.52112515 58.05859375 74.984375 C45.43496724 69.57424935 30.94691125 69.0875267 18.01953125 73.66796875 C5.59403983 79.19223077 -2.66608272 89.22633692 -9.43359375 100.734375 C-10.94140625 102.984375 -10.94140625 102.984375 -13.94140625 104.984375 C-18.72607131 105.76455848 -23.76698727 106.26580055 -28.0625 103.734375 C-30.97730493 100.71472098 -32.32333786 97.86039786 -32.62890625 93.671875 C-31.87434529 83.77874244 -25.08547006 76.23437029 -18.94140625 68.984375 C-18.4825 68.36820313 -18.02359375 67.75203125 -17.55078125 67.1171875 C-11.82048385 59.62637705 -2.95757633 54.70152536 5.05859375 49.984375 C3.37323848 39.38536296 -4.59666181 30.31636516 -12.94140625 23.984375 C-33.92311502 10.49225705 -60.59543584 7.52994155 -80.94140625 23.984375 Z " fill="#439BDF" transform="translate(365.94140625,245.015625)"/>
<path d="M0 0 C14.73938041 11.58094175 23.34982463 26.6946429 27 45 C27.3403125 46.670625 27.3403125 46.670625 27.6875 48.375 C29.31158885 67.21443069 26.46574121 86.43207138 15 102 C12.64913104 104.6938646 10.2507447 107.30822781 7.7578125 109.87109375 C5.6816507 111.92541912 5.6816507 111.92541912 6 115 C7.75530317 117.25724266 9.53354362 119.37477301 11.4375 121.5 C12.53620464 122.75168469 13.63384855 124.0043012 14.73046875 125.2578125 C15.28009277 125.88333008 15.8297168 126.50884766 16.39599609 127.15332031 C20.03782034 131.34612984 23.50959206 135.68106088 27 140 C23.38336428 142.04298506 19.55059554 143.07242346 15.5625 144.125 C14.57926758 144.39763672 14.57926758 144.39763672 13.57617188 144.67578125 C6.10815048 146.66825235 6.10815048 146.66825235 3 146 C1.05943561 143.95777276 -0.46770474 142.0974694 -2.0625 139.8125 C-2.90723902 138.65211578 -3.75228704 137.49195644 -4.59765625 136.33203125 C-4.99871582 135.76822754 -5.39977539 135.20442383 -5.81298828 134.62353516 C-6.92229917 133.1062753 -8.11312234 131.64956224 -9.30859375 130.19921875 C-11 128 -11 128 -11 126 C-11.83660156 126.39832031 -12.67320312 126.79664063 -13.53515625 127.20703125 C-32.78866715 135.97025714 -52.88560444 137.87501035 -73 131 C-84.19285794 126.77388739 -92.83295962 120.66756154 -101 112 C-101.74894531 111.20851563 -102.49789062 110.41703125 -103.26953125 109.6015625 C-117.17437311 93.59637168 -121.32665594 71.6761785 -120 51 C-118.19492787 36.80417849 -113.03525801 23.14540319 -104 12 C-103.38253906 11.22011719 -102.76507812 10.44023438 -102.12890625 9.63671875 C-77.10248232 -20.324493 -30.47365557 -22.49246006 0 0 Z " fill="#0C377A" transform="translate(847,544)"/>
<path d="M0 0 C1.03125 0.7425 2.0625 1.485 3.125 2.25 C18.20770658 16.67693673 25.91130531 36.88743347 26.4375 57.5625 C25.6625523 80.27815439 18.20239321 99.9371576 1.52734375 115.87109375 C-14.63081444 129.48190706 -35.20559582 134.32159073 -56 133 C-74.97900099 130.92310428 -91.96120382 123.1237763 -105 109 C-120.01978727 89.89432631 -123.97902055 67.67779507 -121.375 44 C-119.34649488 31.55944764 -114.46408883 20.14569511 -107 10 C-106.52949219 9.35804688 -106.05898437 8.71609375 -105.57421875 8.0546875 C-95.55585697 -4.53176139 -79.64093643 -12.91437309 -64 -16 C-62.906875 -16.226875 -61.81375 -16.45375 -60.6875 -16.6875 C-38.33833044 -18.58149742 -17.65388783 -14.33435337 0 0 Z " fill="#0C387B" transform="translate(306,546)"/>
<path d="M0 0 C7.59 0 15.18 0 23 0 C23 47.85 23 95.7 23 145 C15.41 145 7.82 145 0 145 C-0.33 140.71 -0.66 136.42 -1 132 C-2.32 133.65 -3.64 135.3 -5 137 C-16.04504701 146.13257778 -28.91290628 149.11379026 -43 148 C-56.04185253 145.36452172 -67.01949165 139.27388126 -74.84375 128.44921875 C-84.11661589 113.93089695 -86.55135241 95.88759652 -83.33984375 79.0390625 C-79.91396801 65.6025109 -72.74656656 54.20100006 -61.3125 46.25 C-49.32985579 39.37280148 -35.98188872 38.23438864 -22.625 41.1875 C-13.67536554 43.75826748 -8.11040377 47.9053682 -1 54 C-0.67 36.18 -0.34 18.36 0 0 Z " fill="#0B3679" transform="translate(500,530)"/>
<path d="M0 0 C10.79394834 8.39337423 17.1724997 21.56059511 19 35 C20.38265955 50.76853304 17.34070394 64.9280229 8 78 C7.236875 79.0725 6.47375 80.145 5.6875 81.25 C-4.06253841 91.22678349 -15.86801615 95.20912974 -29.5 95.375 C-43.08261823 95.43653778 -53.11033727 91.408769 -63.05078125 82.07421875 C-73.0981971 71.72405591 -77.40772631 58.43055777 -77.3125 44.25 C-77.30686035 43.36892578 -77.3012207 42.48785156 -77.29541016 41.58007812 C-77.04700039 28.19054582 -73.1325204 14.58187238 -63.74609375 4.5859375 C-45.74965894 -11.7598176 -20.20319787 -13.7928599 0 0 Z " fill="#FCFBFB" transform="translate(287,561)"/>
<path d="M0 0 C1.41971937 1.05183588 2.8164986 2.13540726 4.1875 3.25 C4.86296875 3.77851562 5.5384375 4.30703125 6.234375 4.8515625 C15.42223327 12.93545331 21.35707277 26.13659417 22.1875 38.25 C22.30738281 39.62478516 22.30738281 39.62478516 22.4296875 41.02734375 C23.01680743 53.89217747 19.44597029 68.13289486 11.1875 78.25 C10.1975 78.25 9.2075 78.25 8.1875 78.25 C7.08714771 76.47931815 5.99159191 74.70541088 4.92480469 72.91430664 C1.83430018 68.00439223 -0.93589866 63.92923644 -6.82128906 62.53955078 C-14.1712161 61.91148953 -21.49522397 62.42234987 -28.8125 63.25 C-28.43552979 63.70213867 -28.05855957 64.15427734 -27.67016602 64.62011719 C-20.14382373 73.66226871 -12.74013166 82.73825177 -5.8125 92.25 C-10.0864896 97.38742184 -17.50804763 97.88857552 -23.8125 98.578125 C-37.12773962 99.0739052 -49.82223907 94.03845173 -59.5625 85 C-70.30114421 73.37907281 -74.56305423 58.58101892 -74.265625 43.05273438 C-73.62337033 27.9721008 -68.6176194 14.85380148 -57.453125 4.44140625 C-41.1239644 -9.10986461 -18.31680887 -11.42070195 0 0 Z " fill="#FBFBFB" transform="translate(826.8125,558.75)"/>
<path d="M0 0 C10.4657869 7.98758687 15.35734163 20.52665249 18 33 C18 38.94 18 44.88 18 51 C-6.75 51.33 -31.5 51.66 -57 52 C-54.16400833 65.23231413 -54.16400833 65.23231413 -45.52734375 74.62890625 C-36.72753849 79.17784829 -27.80828789 80.68342455 -18.125 77.8125 C-13.37532554 76.01440896 -10.33490653 73.20704547 -7.69995117 68.85058594 C-6 67 -6 67 -3.5480957 66.63769531 C-2.60023193 66.70053711 -1.65236816 66.76337891 -0.67578125 66.828125 C0.35224609 66.88613281 1.38027344 66.94414063 2.43945312 67.00390625 C4.04723633 67.12572266 4.04723633 67.12572266 5.6875 67.25 C6.77095703 67.31574219 7.85441406 67.38148438 8.97070312 67.44921875 C11.64887652 67.61439244 14.3243402 67.79868453 17 68 C13.71167218 78.76039668 6.91220393 87.54437127 -3.02880859 92.8762207 C-16.28302549 99.59797709 -31.0937009 101.63393783 -45.48828125 96.96484375 C-58.67830928 91.89806782 -70.49174482 82.83619313 -76.50390625 69.71875 C-82.16794054 55.38922735 -84.2538252 36.99790639 -78.1875 22.421875 C-77.795625 21.62265625 -77.40375 20.8234375 -77 20 C-76.649375 19.22140625 -76.29875 18.4428125 -75.9375 17.640625 C-70.13634057 5.95773448 -60.73631085 -2.01797566 -48.75 -6.8125 C-32.28051299 -12.02783755 -14.30418867 -9.56635122 0 0 Z " fill="#0B3679" transform="translate(622,579)"/>
<path d="M0 0 C7.64815887 4.41340674 12.28034896 9.98343211 15.28125 18.31640625 C17.54274327 28.96126946 17.65723168 40.91701904 11.9921875 50.49609375 C6.66368014 58.04718706 0.54179829 63.57915611 -8.71875 65.31640625 C-18.8978525 66.41721707 -26.08612233 64.46055135 -34.03125 58.06640625 C-40.63205466 51.91177924 -43.26162687 43.98196268 -43.9765625 35.12109375 C-44.33450529 24.26349564 -42.39887172 14.53369478 -35.35546875 6 C-25.92907261 -3.69636452 -12.27898413 -5.72089033 0 0 Z " fill="#FBFBFB" transform="translate(483.71875,592.68359375)"/>
<path d="M0 0 C0 7.26 0 14.52 0 22 C-2.10375 22.061875 -4.2075 22.12375 -6.375 22.1875 C-14.8173034 22.81001328 -21.45090857 24.9539411 -27.375 31.1875 C-33.72525356 39.81683788 -34.59898483 48.4055204 -34.609375 58.8828125 C-34.62591125 60.17822968 -34.64244751 61.47364685 -34.65948486 62.80831909 C-34.70279218 66.21782399 -34.72307477 69.62707347 -34.73822021 73.0368042 C-34.7579252 76.52989583 -34.79987902 80.02271682 -34.83984375 83.515625 C-34.91474771 90.34367391 -34.96321679 97.17164025 -35 104 C-42.92 104 -50.84 104 -59 104 C-59 70.34 -59 36.68 -59 2 C-51.41 2 -43.82 2 -36 2 C-35.505 8.93 -35.505 8.93 -35 16 C-33.741875 14.63875 -32.48375 13.2775 -31.1875 11.875 C-21.68236776 2.33978822 -13.44241444 0 0 0 Z " fill="#0A367A" transform="translate(408,571)"/>
<path d="M0 0 C0 7.26 0 14.52 0 22 C-2.908125 22.0928125 -2.908125 22.0928125 -5.875 22.1875 C-15.61994149 22.97133225 -22.13679121 26.28047931 -28.52734375 33.64453125 C-33.42945617 41.48531053 -33.46633551 48.87823977 -33.51171875 57.90625 C-33.52859218 59.24004745 -33.54674595 60.57382925 -33.56611633 61.90759277 C-33.61333418 65.39269113 -33.64332472 68.87772605 -33.66955566 72.36303711 C-33.69950496 75.92965215 -33.74598531 79.49604913 -33.79101562 83.0625 C-33.8767269 90.04155638 -33.94268322 97.0206532 -34 104 C-41.92 104 -49.84 104 -58 104 C-58 70.34 -58 36.68 -58 2 C-50.41 2 -42.82 2 -35 2 C-34.505 8.93 -34.505 8.93 -34 16 C-31.834375 13.6796875 -31.834375 13.6796875 -29.625 11.3125 C-20.53545073 2.19712815 -12.89666107 0 0 0 Z " fill="#0A3579" transform="translate(715,571)"/>
<path d="M0 0 C4.35132126 3.89706245 6.79725241 9.70603724 8.875 15.0625 C8.875 16.3825 8.875 17.7025 8.875 19.0625 C-7.955 19.0625 -24.785 19.0625 -42.125 19.0625 C-38.75525196 8.95325589 -35.53970224 3.29135186 -27.125 -2.9375 C-18.01071658 -7.49464171 -8.23056617 -5.10295102 0 0 Z " fill="#FAFBFB" transform="translate(607.125,593.9375)"/>
<path d="M0 0 C2.31 0 4.62 0 7 0 C7 7.26 7 14.52 7 22 C1.06 22.33 -4.88 22.66 -11 23 C-8.51474256 20.51474256 -7.47095704 20.4431009 -4 20 C-1.03 20 1.94 20 5 20 C5 13.73 5 7.46 5 1 C3.35 1 1.7 1 0 1 C0 0.67 0 0.34 0 0 Z " fill="#09276F" transform="translate(401,571)"/>
<path d="M0 0 C0.33 0.66 0.66 1.32 1 2 C-1.20927127 5.48832306 -3.08597051 6.73058503 -7 8 C-5.50902342 4.2047869 -3.24299151 2.38957269 0 0 Z " fill="#08246E" transform="translate(755,544)"/>
</svg>
